<svg xmlns="http://www.w3.org/2000/svg" viewBox="0 0 24 24" role="img" aria-label="GitHub">
  <path fill="#FFFFFF" d="M12 .8a11.3 11.3 0 00-3.6 22c.6.1.8-.2.8-.6v-2c-3.3.7-4-1.4-4-1.4-.5-1.2-1.2-1.6-1.2-1.6-1-.7.1-.7.1-.7 1.1.1 1.7 1.2 1.7 1.2 1 1.7 2.7 1.2 3.4.9.1-.7.4-1.2.7-1.5-2.7-.3-5.5-1.4-5.5-6.1 0-1.4.5-2.6 1.2-3.5-.1-.3-.5-1.5.1-3.2 0 0 1-.3 3.6 1.2a12.3 12.3 0 016.6 0C17.1 3 18.1 3.3 18.1 3.3c.6 1.7.2 2.9.1 3.2.7.9 1.2 2.1 1.2 3.5 0 4.8-2.8 5.8-5.5 6.1.4.4.8 1.1.8 2.2v3.2c0 .4.2.7.8.6A11.3 11.3 0 0012 .8z"/>
</svg>
