<svg xmlns="http://www.w3.org/2000/svg"
     viewBox="0 0 630 630"
     role="img"
     aria-label="JavaScript logo">
  <rect width="630" height="630" fill="#f7df1e"/>

  <path d="M423.2 492.19c13.3 21.7 30.6 37.7 61.2 37.7
           25.7 0 42.1-12.9 42.1-30.6
           0-21.2-16.8-28.7-45.1-41l-15.5-6.6
           c-44.7-19-74.4-42.8-74.4-93.1
           0-46.3 35.2-81.5 90.3-81.5
           39.2 0 67.3 13.7 87.5 49.5
           l-47.9 30.7
           c-10.5-18.9-21.8-26.3-39.6-26.3
           -18 0-29.4 11.4-29.4 26.3
           0 18.4 11.4 25.9 37.7 37.3l15.5 6.6
           c52.7 22.6 82.5 45.7 82.5 97.7
           0 56-44 86.6-103.1 86.6
           -57.9 0-95.3-27.6-113.5-63.8z"/>

  <path d="M267.9 497.5
           c9.6 17 18.4 31.4 39.6 31.4
           20.2 0 33-7.9 33-38.6V277.3h61.2v213.8
           c0 64.9-38 94.4-93.4 94.4
           -50.2 0-79.3-26-94.3-57.4z"/>
</svg>
