<svg xmlns="http://www.w3.org/2000/svg" viewBox="0 0 24 24" role="img" aria-label="AI Tools">
  <path fill="#10A37F" d="M12 2.1c1.5 0 2.9.6 3.9 1.6l1.3-.7c1.3-.7 2.9-.2 3.6 1.1.7 1.3.2 2.9-1.1 3.6l-.6.3c.2.6.3 1.3.3 2 0 .7-.1 1.4-.3 2l.6.3c1.3.7 1.8 2.3 1.1 3.6-.7 1.3-2.3 1.8-3.6 1.1l-1.3-.7A5.6 5.6 0 0112 21.9c-1.5 0-2.9-.6-3.9-1.6l-1.3.7c-1.3.7-2.9.2-3.6-1.1-.7-1.3-.2-2.9 1.1-3.6l.6-.3A6 6 0 014.6 12c0-.7.1-1.4.3-2l-.6-.3C3 9 2.5 7.4 3.2 6.1c.7-1.3 2.3-1.8 3.6-1.1l1.3.7A5.6 5.6 0 0112 2.1zm0 3.1a3.8 3.8 0 100 7.6 3.8 3.8 0 000-7.6z"/>
</svg>
